<?xml version="1.0" encoding="UTF-8" standalone="no"?>
<svg
        xmlns="http://www.w3.org/2000/svg"
        viewBox="0 0 150 150"
        height="26px"
        width="26px"
        version="1.1">
    <g transform="matrix(1.3333333,0,0,-1.3333333,0,136.21467)" id="g10">
        <path transform="translate(1.4177,22.6479)"
              d="m 0,0 8.935,-15.445 0.002,-10e-4 c 1.76,-3.485 5.37,-5.876 9.54,-5.876 h 0.008 v 0 H 77.786 L 65.48,0 Z"/>
        <path transform="translate(107.1949,22.5382)"
              d="M 0,0 C 0,2.135 -0.629,4.123 -1.708,5.792 L -36.458,66.2 c -1.794,3.378 -5.347,5.68 -9.44,5.68 h -18.365 l 53.676,-93.001 8.461,14.655 C -0.457,-3.659 0,-2.417 0,0"/>
        <path transform="translate(58.1461,37.798)" d="M 0,0 -23.991,41.553 -47.982,0 Z"/>
    </g>
</svg>