<?xml version="1.0" encoding="UTF-8" standalone="no"?>
<svg xmlns="http://www.w3.org/2000/svg"
     width="32px"
     height="32px"
     viewBox="0 0 24 24">
    <path d="m 13.318464,19.087146 c -1.66391,-0.160758 -2.802005,-1.032611 -3.212956,-2.461328 -0.0821,-0.28542 -0.08247,-0.297214 -0.09397,-2.956191 L 10,11 H 8.9947825 7.989565 v -1.3791292 -1.37913 l 0.206739,-0.02193 c 0.323193,-0.034282 0.736272,-0.1523655 1.023024,-0.2924355 0.820181,-0.400634 1.250792,-1.0816244 1.485929,-2.3499215 0.04882,-0.2633355 0.08877,-0.4938942 0.08877,-0.5123528 0,-0.020032 0.434801,-0.033561 1.078638,-0.033561 h 1.078637 v 1.5100925 1.510092 h 1.510093 1.510092 v 1.473744 1.4737435 l -1.501104,0.0094 -1.501104,0.0094 2.15e-4,2.157275 c 2.17e-4,2.393895 -8.99e-4,2.380745 0.228956,2.610625 0.228203,0.228202 0.358241,0.247765 1.647002,0.247765 h 1.126044 v 1.487926 1.487927 l -0.224716,0.02288 c -0.309304,0.03149 -1.650659,0.09302 -1.914581,0.08781 -0.118651,-0.0023 -0.349827,-0.01721 -0.513725,-0.03305 z"/>
</svg>
