<svg xmlns="http://www.w3.org/2000/svg" width="700.000000pt" height="700.000000pt" viewBox="0 0 700.000000 700.000000"
     preserveAspectRatio="xMidYMid meet" version="1.0">
    <g transform="translate(0.000000,700.000000) scale(0.100000,-0.100000)">
        <path d="M4081 6944 c-17 -14 -64 -72 -105 -127 -66 -91 -118 -170 -274 -412
-93 -145 -114 -171 -169 -212 -94 -71 -94 -68 -13 112 58 130 107 266 116 327
9 57 1 47 -26 -32 -30 -88 -110 -257 -151 -317 -18 -26 -121 -158 -229 -293
-374 -468 -568 -727 -700 -941 -57 -91 -94 -168 -160 -334 -23 -55 -80 -253
-95 -325 -2 -8 -10 -44 -18 -80 -15 -61 -46 -228 -52 -277 -2 -13 -6 -40 -9
-60 -3 -21 -8 -60 -11 -88 -3 -27 -8 -63 -10 -80 -2 -16 -7 -66 -11 -110 -15
-175 -15 -173 41 -149 26 10 55 14 87 11 91 -10 135 -55 182 -186 32 -89 34
-114 6 -78 -11 14 -43 42 -71 63 -46 34 -56 37 -127 39 l-76 3 24 -20 c124
-98 207 -225 225 -346 7 -51 -3 -53 -66 -17 -24 13 -67 27 -96 31 -45 5 -58 3
-96 -19 -53 -32 -124 -110 -162 -179 -23 -42 -29 -67 -32 -132 -3 -95 7 -132
47 -171 36 -34 36 -34 10 40 -30 86 -13 150 62 231 48 52 126 94 176 94 64 0
153 -82 166 -154 15 -84 27 -324 16 -331 -5 -3 -16 30 -25 72 -26 122 -53 189
-92 223 -18 17 -41 30 -51 30 -13 -1 -10 -6 11 -21 60 -45 65 -96 31 -291 -3
-18 -7 -49 -10 -68 -2 -19 -8 -57 -14 -85 -5 -27 -12 -70 -16 -95 -3 -25 -8
-56 -10 -70 -2 -14 -7 -73 -9 -131 -5 -103 -4 -108 25 -165 17 -32 53 -83 80
-113 74 -81 73 -81 -82 -35 -116 34 -133 45 -160 104 -21 47 -27 68 -30 112
-1 21 -4 38 -6 38 -5 0 -31 -66 -36 -94 -10 -54 -16 -64 -36 -59 -15 4 -20 0
-21 -16 -1 -11 -2 -27 -3 -33 -6 -40 37 -168 56 -168 4 0 20 -12 35 -27 23
-23 28 -25 31 -11 4 19 24 15 112 -24 30 -14 63 -28 74 -32 16 -6 12 -14 -36
-64 -30 -31 -60 -67 -67 -80 -6 -12 -20 -22 -30 -22 -19 0 -54 -72 -67 -137
-6 -30 -4 -33 19 -33 26 0 50 17 67 51 7 13 7 19 0 19 -20 0 -9 19 39 67 50
50 191 134 191 113 0 -6 -13 -30 -29 -53 -15 -23 -38 -60 -49 -83 -24 -47 -51
-75 -53 -53 -1 8 -9 -11 -18 -41 -10 -30 -16 -58 -14 -62 14 -27 74 15 103 71
11 21 10 23 -4 18 -37 -14 49 88 118 141 44 34 49 27 19 -30 -15 -29 -37 -78
-48 -108 -11 -30 -25 -55 -32 -55 -20 0 -28 -15 -39 -75 -12 -66 -3 -100 25
-100 27 0 35 17 37 71 0 39 10 61 57 131 31 47 63 91 72 98 16 13 9 -8 -44
-142 -6 -16 -17 -28 -25 -28 -21 0 -26 -23 -26 -133 0 -117 7 -136 42 -120 31
14 52 77 33 96 -19 19 -1 54 75 141 66 76 99 103 85 69 -16 -38 -42 -159 -39
-183 1 -14 6 -51 9 -82 7 -63 19 -75 28 -28 7 35 68 97 103 106 25 6 63 2 97
-11 16 -7 16 -4 -2 46 -76 204 -205 695 -226 859 -3 25 -8 59 -11 75 -4 17 -4
28 -1 25 3 -3 18 -63 32 -132 64 -319 241 -892 354 -1153 5 -11 21 -50 37 -88
31 -76 50 -99 65 -76 5 8 9 23 10 34 0 11 2 29 4 39 2 11 -4 31 -14 45 -26 37
-81 156 -136 296 -26 66 -53 134 -61 150 -75 167 -208 725 -229 965 -3 35 -1
31 10 -20 7 -36 16 -83 19 -105 2 -22 17 -98 31 -170 15 -71 29 -140 31 -153
28 -150 165 -585 195 -616 8 -9 69 48 69 66 0 23 106 227 164 316 59 91 108
144 184 201 17 13 29 28 26 32 -7 11 -86 -30 -144 -75 -52 -40 -68 -39 -23 2
103 94 240 367 244 487 2 46 -19 100 -51 134 -24 25 -78 51 -106 51 -36 0
-147 -64 -199 -115 -30 -29 -55 -48 -55 -42 0 19 133 276 185 357 26 41 66 95
89 118 41 44 134 112 170 126 10 3 16 9 13 13 -7 6 -209 -91 -267 -129 -33
-22 -34 -22 -20 -2 8 12 44 52 79 90 142 154 283 379 376 599 34 79 154 419
150 423 -2 2 -19 -20 -38 -49 -54 -85 -108 -131 -388 -336 -61 -45 -156 -136
-206 -198 -18 -22 -60 -75 -94 -117 -33 -43 -63 -78 -65 -78 -4 0 39 79 56
105 4 6 13 28 20 50 40 126 48 136 385 472 177 177 336 342 353 368 30 45 99
247 202 590 51 171 81 242 128 303 14 18 22 35 20 38 -9 9 -101 -65 -161 -129
-32 -34 -81 -96 -110 -139 -29 -42 -53 -75 -55 -74 -1 2 13 46 32 98 54 152
135 265 260 365 98 78 142 127 176 192 99 197 64 373 -89 449 -49 24 -68 27
-147 27 -86 -1 -97 -3 -165 -38 -41 -21 -110 -69 -154 -107 -44 -37 -81 -67
-83 -65 -7 7 72 153 111 205 47 64 86 102 142 138 32 21 54 26 110 29 60 2 89
-4 185 -37 63 -21 122 -41 131 -45 37 -15 70 232 73 545 2 249 -15 358 -79
511 -57 135 -125 216 -220 263 -72 35 -133 35 -174 0z m-317 -1666 c-16 -27
-120 -155 -153 -188 -34 -35 -34 -35 4 15 52 67 149 185 153 185 2 0 0 -6 -4
-12z m-415 -114 c-28 -54 -62 -120 -76 -146 -25 -51 -39 -64 -24 -25 10 26
112 222 132 255 31 50 15 8 -32 -84z m-532 -1496 c-3 -8 -6 -5 -6 6 -1 11 2
17 5 13 3 -3 4 -12 1 -19z m-80 -470 c-3 -8 -6 -5 -6 6 -1 11 2 17 5 13 3 -3
4 -12 1 -19z m-10 -130 c-3 -8 -6 -5 -6 6 -1 11 2 17 5 13 3 -3 4 -12 1 -19z
m-60 -363 c0 -8 -4 -12 -9 -9 -5 3 -6 10 -3 15 9 13 12 11 12 -6z m20 -627
c-3 -8 -6 -5 -6 6 -1 11 2 17 5 13 3 -3 4 -12 1 -19z"/>
    </g>
    <style>
        path { fill: #19324c; }
        @media (prefers-color-scheme: dark) { path { fill: #ffffff; } }
    </style>
</svg>
