<?xml version="1.0" encoding="UTF-8" standalone="no"?>
<svg
        xmlns:inkscape="http://www.inkscape.org/namespaces/inkscape"
        xmlns:sodipodi="http://sodipodi.sourceforge.net/DTD/sodipodi-0.dtd"
        version="1.0"
        width="512.000000pt"
        height="512.000000pt"
        viewBox="0 0 512.000000 512.000000"
        preserveAspectRatio="xMidYMid meet"
        id="svg11"
        sodipodi:docname="Logo with Square Background.svg"
        inkscape:version="1.3 (0e150ed6c4, 2023-07-21)"
        xmlns="http://www.w3.org/2000/svg">
    <rect
            style="fill-opacity:1;stroke-width:5.625"
            width="3840"
            height="3840"
            x="600"
            y="-4520"
            ry="243.38808"
            transform="scale(1,-1)"
            id="background"/>
    <path
            d="m 3194,5086 c -31,-14 -150,-182 -299,-421 -37,-60 -77,-121 -89,-134 -25,-28 -106,-85 -112,-79 -2,3 16,47 40,99 49,104 90,211 104,276 11,46 -1,51 -13,6 -12,-50 -78,-197 -113,-252 -18,-30 -78,-109 -132,-175 -308,-377 -526,-669 -624,-836 -101,-169 -174,-402 -230,-725 -25,-146 -52,-422 -42,-432 3,-3 11,-1 18,4 23,19 75,24 117,13 48,-13 79,-50 110,-133 23,-63 29,-107 10,-75 -5,10 -31,34 -56,53 -41,31 -52,35 -107,34 -60,0 -61,0 -36,-16 66,-44 126,-119 153,-191 39,-106 34,-135 -18,-96 -29,22 -94,36 -130,30 -44,-9 -131,-95 -161,-160 -17,-36 -24,-69 -24,-113 0,-70 11,-100 45,-125 l 23,-17 -20,51 c -17,45 -18,58 -8,95 24,83 118,163 194,163 42,0 102,-47 122,-95 15,-37 31,-295 18,-295 -5,0 -15,33 -21,74 -15,95 -47,162 -85,182 -17,9 -32,13 -35,11 -2,-3 5,-10 16,-16 11,-7 28,-25 36,-42 18,-33 17,-38 -21,-269 -58,-350 -54,-378 60,-497 22,-24 35,-43 30,-43 -27,0 -170,42 -192,56 -31,20 -61,88 -62,139 -1,40 -1,40 -15,15 -7,-14 -17,-47 -21,-75 -4,-27 -9,-44 -11,-37 -3,6 -11,12 -19,12 -10,0 -14,-13 -14,-47 0,-53 34,-138 50,-128 5,3 10,0 10,-8 0,-8 7,-18 16,-21 23,-9 27,-8 21,8 -4,9 21,2 68,-20 41,-19 80,-34 87,-34 7,0 -2,-12 -21,-27 -18,-15 -47,-47 -62,-72 -16,-25 -29,-40 -29,-33 0,6 -6,9 -13,6 -11,-4 -47,-104 -47,-129 0,-3 11,-5 24,-5 14,0 30,10 40,25 18,28 21,39 6,30 -22,-14 -7,13 30,53 35,38 145,100 156,89 3,-2 -8,-20 -24,-39 -15,-20 -36,-54 -46,-77 -19,-40 -35,-53 -37,-28 -1,12 -10,-14 -23,-66 -6,-26 -5,-28 19,-25 18,2 33,16 52,48 20,33 22,41 8,30 -17,-14 -18,-14 -1,17 15,30 114,118 122,110 2,-2 -9,-28 -25,-58 -16,-30 -32,-68 -36,-86 -4,-21 -11,-30 -20,-27 -18,7 -23,-3 -31,-74 -7,-61 -6,-62 19,-62 19,0 26,7 31,27 4,15 3,29 -3,33 -7,4 3,29 25,65 39,67 100,142 88,110 -44,-121 -53,-140 -68,-137 -14,2 -16,-11 -16,-98 0,-99 0,-100 24,-100 19,0 27,8 36,36 10,29 10,38 -1,44 -10,7 -10,14 -2,33 11,24 123,150 129,145 1,-2 -6,-29 -17,-61 -16,-47 -18,-73 -13,-133 4,-41 11,-74 15,-74 5,0 9,9 9,21 0,12 15,36 34,55 36,36 78,44 118,23 17,-9 20,-9 16,2 -87,229 -200,682 -197,789 0,14 11,-36 24,-110 36,-203 158,-603 275,-895 55,-137 64,-155 79,-140 11,13 22,97 11,90 -15,-9 -161,335 -209,494 -65,211 -125,495 -135,641 l -5,75 9,-65 c 32,-216 80,-445 126,-599 34,-112 84,-254 95,-265 15,-16 46,22 69,85 28,73 110,219 157,276 18,23 54,57 78,74 25,18 45,36 45,41 0,17 -45,-4 -103,-48 -73,-57 -86,-57 -22,0 76,66 185,290 185,378 0,70 -59,138 -121,138 -39,0 -124,-47 -163,-91 -20,-21 -38,-39 -40,-39 -10,0 29,80 102,214 84,151 125,197 228,254 33,18 48,30 34,26 -33,-9 -176,-80 -212,-105 -44,-32 -33,-13 32,54 137,140 262,352 345,582 25,72 55,154 65,183 11,28 18,52 16,52 -3,0 -15,-17 -28,-37 -42,-69 -90,-113 -238,-219 -147,-104 -178,-135 -293,-284 -32,-41 -63,-77 -69,-79 -6,-2 3,14 20,35 17,22 40,69 51,105 12,36 34,83 49,105 16,22 138,145 271,274 206,200 246,244 271,296 16,33 61,168 99,300 78,268 87,292 130,351 17,24 31,45 31,49 0,3 -21,-10 -46,-28 -58,-41 -126,-115 -176,-192 -21,-33 -40,-61 -42,-63 -7,-7 41,133 54,158 43,81 107,161 163,202 34,25 79,63 99,84 83,86 122,246 80,330 -44,86 -122,127 -229,120 -84,-5 -145,-36 -244,-126 l -60,-53 26,58 c 51,116 134,210 210,239 54,21 113,12 236,-34 l 77,-28 10,36 c 21,69 35,227 36,406 0,159 -2,191 -23,270 -44,171 -114,276 -214,324 -50,24 -79,26 -123,7 z M 2874,3695 c -72,-90 -109,-128 -65,-67 32,45 131,162 137,162 2,0 -30,-43 -72,-95 z m -280,-45 c -37,-72 -69,-128 -72,-126 -5,5 126,256 134,256 3,0 -25,-59 -62,-130 z M 2167,2608 c -3,-8 -6,-5 -6,6 -1,11 2,17 5,13 3,-3 4,-12 1,-19 z m -10,-40 c -3,-8 -6,-5 -6,6 -1,11 2,17 5,13 3,-3 4,-12 1,-19 z m 50,0 c -3,-8 -6,-5 -6,6 -1,11 2,17 5,13 3,-3 4,-12 1,-19 z m -60,-40 c -3,-8 -6,-5 -6,6 -1,11 2,17 5,13 3,-3 4,-12 1,-19 z m 50,-10 c -3,-8 -6,-5 -6,6 -1,11 2,17 5,13 3,-3 4,-12 1,-19 z m -60,-370 c -3,-7 -5,-2 -5,12 0,14 2,19 5,13 2,-7 2,-19 0,-25 z m -50,-141 c -2,-23 -3,-1 -3,48 0,50 1,68 3,42 2,-26 2,-67 0,-90 z m 40,16 c -2,-16 -4,-3 -4,27 0,30 2,43 4,28 2,-16 2,-40 0,-55 z m -10,-335 c -1,-57 -3,-11 -3,102 0,113 2,159 3,103 2,-57 2,-149 0,-205 z m -40,-20 c -1,-51 -3,-12 -3,87 0,99 2,141 3,93 2,-48 2,-129 0,-180 z m 50,-190 c -2,-18 -4,-4 -4,32 0,36 2,50 4,33 2,-18 2,-48 0,-65 z m -40,-85 c -2,-27 -3,-5 -3,47 0,52 1,74 3,48 2,-27 2,-69 0,-95 z m 50,-30 c -2,-16 -4,-3 -4,27 0,30 2,43 4,28 2,-16 2,-40 0,-55 z m -40,-115 c -2,-18 -4,-4 -4,32 0,36 2,50 4,33 2,-18 2,-48 0,-65 z"
            id="feather"/>
    <style>
        @media (prefers-color-scheme: dark) {
        #background {
        fill: #19324c;
        }
        #feather {
        fill: #ffffff;
        }
        }
        @media (prefers-color-scheme: light) {
        #background {
        fill: #ffffff;
        }
        #feather {
        fill: #19324c;
        }
        }
    </style>
</svg>
